<?xml version="1.0" standalone="no"?>
<!DOCTYPE svg PUBLIC "-//W3C//DTD SVG 20010904//EN"
 "http://www.w3.org/TR/2001/REC-SVG-20010904/DTD/svg10.dtd">
<svg version="1.0" xmlns="http://www.w3.org/2000/svg"
 width="3300.000000pt" height="3300.000000pt" viewBox="0 0 3300.000000 3300.000000"
 preserveAspectRatio="xMidYMid meet">
<metadata>
Created by potrace 1.14, written by Peter Selinger 2001-2017
</metadata>
<g transform="translate(0.000000,3300.000000) scale(0.100000,-0.100000)"
fill="#000000" stroke="none">
<path d="M7534 27001 c-2 -2 -4 -4730 -4 -10505 l0 -10501 1503 0 1502 0 5
4500 5 4500 5975 0 5975 0 0 -2622 c0 -1443 -2 -2623 -5 -2623 -3 0 -23 28
-45 63 -22 34 -42 64 -45 67 -3 3 -31 44 -62 93 -150 227 -174 263 -183 273
-5 7 -28 40 -50 74 -64 100 -143 219 -239 360 -25 36 -59 88 -76 115 -17 28
-54 84 -83 126 -28 42 -121 179 -205 305 -83 126 -220 330 -302 454 -82 124
-154 232 -160 240 -6 8 -36 54 -68 101 -31 48 -103 156 -159 240 -57 85 -134
201 -173 259 -38 58 -73 110 -77 115 -4 6 -42 62 -83 125 -41 63 -77 117 -80
120 -3 3 -31 44 -62 93 -32 48 -84 125 -115 172 -32 47 -74 109 -93 139 -32
49 -104 158 -130 196 -6 8 -25 38 -43 65 -18 28 -45 68 -60 90 -58 86 -170
254 -227 340 -33 50 -64 97 -70 105 -6 8 -30 44 -53 80 l-42 65 -1503 0 c-826
1 -1502 -2 -1502 -6 0 -6 96 -141 248 -349 31 -41 68 -93 84 -115 105 -144
354 -488 382 -525 18 -25 197 -270 396 -545 199 -275 381 -525 403 -555 23
-30 56 -75 74 -100 18 -25 36 -49 41 -55 4 -5 54 -75 112 -155 57 -80 134
-185 170 -235 36 -49 95 -130 131 -180 36 -49 236 -324 444 -610 384 -527 614
-844 785 -1080 51 -71 103 -142 114 -156 12 -14 28 -36 36 -49 8 -12 56 -79
107 -148 133 -182 506 -696 561 -772 26 -35 63 -86 82 -112 19 -27 78 -107
130 -179 52 -72 120 -165 151 -207 31 -43 147 -203 259 -357 112 -154 220
-302 240 -330 123 -168 258 -353 495 -680 147 -203 288 -397 312 -430 41 -55
167 -229 219 -301 l21 -29 1494 1 c822 1 1499 2 1504 3 10 1 15 21000 5 21002
-12 3 -2986 5 -2995 2 -7 -2 -10 -1504 -10 -4486 l0 -4482 -5975 0 -5975 0 -3
2610 c-1 1548 2 2605 7 2600 8 -9 219 -324 246 -367 14 -23 2727 -4092 2732
-4098 5 -6 2994 -8 3005 -3 6 3 -126 195 -169 248 -5 6 -69 93 -142 195 -74
102 -158 217 -186 255 -28 39 -172 237 -320 440 -148 204 -290 399 -316 435
-26 36 -106 146 -178 245 -72 99 -134 185 -138 190 -15 19 -568 779 -583 802
-13 19 -214 296 -381 523 -53 72 -1204 1656 -1241 1707 -13 18 -31 43 -40 55
-10 13 -202 277 -428 588 -226 311 -418 574 -426 585 -8 11 -104 144 -214 295
-110 151 -208 286 -217 299 -10 13 -214 294 -455 625 -240 330 -464 639 -499
686 l-62 85 -1499 0 c-825 0 -1501 -2 -1504 -4z"/>
</g>
</svg>
